<svg xmlns="http://www.w3.org/2000/svg" xmlns:xlink="http://www.w3.org/1999/xlink" width="208" height="160">
  <defs>
    <rect id="a" width="208" height="136" rx="4"/>
  </defs>
  <g fill="none" fill-rule="evenodd">
    <mask id="b" fill="#fff">
      <use xlink:href="#a"/>
    </mask>
    <use fill="#4399FF" xlink:href="#a"/>
    <g mask="url(#b)">
      <g transform="translate(12 12)">
        <rect width="184" height="16" fill="#276FD7" rx="4"/>
        <path fill="#E7F5FF" d="M173 7.5a2.5 2.5 0 1 1 5-.001 2.5 2.5 0 0 1-5 .001zm5.457 1.874l1.32 1.32a.766.766 0 0 1-1.083 1.082l-1.32-1.32a3.5 3.5 0 1 1 1.082-1.082z"/>
      </g>
    </g>
    <g mask="url(#b)">
      <g transform="translate(76 36)">
        <rect width="48" height="64" x="4" y="4" fill="#000" fill-opacity=".08" rx="4"/>
        <rect width="56" height="64" fill="#E7F5FF" rx="4"/>
        <path fill="#ACF2CF" d="M4 0h48a4 4 0 0 1 4 4v40H0V4a4 4 0 0 1 4-4z"/>
        <path fill="#A2DAFF" d="M6.5 48h21a2.5 2.5 0 1 1 0 5h-21a2.5 2.5 0 1 1 0-5zm0 7h7a2.5 2.5 0 1 1 0 5h-7a2.5 2.5 0 1 1 0-5zm15 0h19a2.5 2.5 0 1 1 0 5h-19a2.5 2.5 0 1 1 0-5z"/>
      </g>
    </g>
    <g mask="url(#b)">
      <g transform="translate(140 36)">
        <rect width="48" height="64" x="4" y="4" fill="#000" fill-opacity=".08" rx="4"/>
        <rect width="56" height="64" fill="#E7F5FF" rx="4"/>
        <path fill="#A2DAFF" d="M4 0h48a4 4 0 0 1 4 4v40H0V4a4 4 0 0 1 4-4zm2.5 48h21a2.5 2.5 0 1 1 0 5h-21a2.5 2.5 0 1 1 0-5zm0 7h7a2.5 2.5 0 1 1 0 5h-7a2.5 2.5 0 1 1 0-5zm15 0h19a2.5 2.5 0 1 1 0 5h-19a2.5 2.5 0 1 1 0-5z"/>
      </g>
    </g>
    <g mask="url(#b)">
      <g transform="translate(76 108)">
        <rect width="48" height="64" x="4" y="4" fill="#000" fill-opacity=".08" rx="4"/>
        <rect width="56" height="64" fill="#E7F5FF" rx="4"/>
        <path fill="#84C0FF" d="M4 0h48a4 4 0 0 1 4 4v40H0V4a4 4 0 0 1 4-4z"/>
        <path fill="#A2DAFF" d="M6.5 48h21a2.5 2.5 0 1 1 0 5h-21a2.5 2.5 0 1 1 0-5zm0 7h7a2.5 2.5 0 1 1 0 5h-7a2.5 2.5 0 1 1 0-5zm15 0h19a2.5 2.5 0 1 1 0 5h-19a2.5 2.5 0 1 1 0-5z"/>
      </g>
    </g>
    <g mask="url(#b)">
      <g transform="translate(140 108)">
        <rect width="48" height="64" x="4" y="4" fill="#000" fill-opacity=".08" rx="4"/>
        <rect width="56" height="64" fill="#E7F5FF" rx="4"/>
        <path fill="#D7E4C9" d="M4 0h48a4 4 0 0 1 4 4v40H0V4a4 4 0 0 1 4-4z"/>
        <path fill="#A2DAFF" d="M6.5 48h21a2.5 2.5 0 1 1 0 5h-21a2.5 2.5 0 1 1 0-5zm0 7h7a2.5 2.5 0 1 1 0 5h-7a2.5 2.5 0 1 1 0-5zm15 0h19a2.5 2.5 0 1 1 0 5h-19a2.5 2.5 0 1 1 0-5z"/>
      </g>
    </g>
    <path fill="#000" fill-opacity=".08" d="M68.984 99.493c.053.162-.02.382-.288.668-.833.893-1.847.5-4.058.785-2.211.286-4.232.16-5.283.732-1.05.572-5.77 4.34-7.11 5.125-1.342.786-4.642 2.718-5.298 2.742-.92.033-3.05-.053-3.775-.875-.653-.74-4.012-2.992-5.624-5.339-.639.762-1.398.044-1.783-.613-.066-.113-.05-.257.023-.42l1.927-.163c-.039 2.335-.189 4.8-.54 6.155-.47 1.822-.48 6.254-.407 7.361.072 1.108-.076 1.323.25 2.18.326.857.471 2.607.471 3.18 0 .244-.521.318-1.116.323.113 1.634.29 12.371.462 14.666H18.643c-.118-1.774-.22-12.05-.306-13.578a3.305 3.305 0 0 1-.492.054c-.906 0-1.341-1.393-.797-2.215.543-.821.468-6.182.468-8.79 0-1.929-.087-5.32-.071-7.623l-1.768.15a2.04 2.04 0 0 1-2.144-1.931l-.048-.926c-1.21.449-2.697.77-3.887.504-.554-.124-2.647-1.839-2.597-2.236.086-.678.538-3.221 1.563-5.642 1.084-2.56 3.41-6.2 4.01-6.904.058-.068.113-.137.167-.206l-1.738-33.835a2.04 2.04 0 0 1 1.935-2.139l55.385-4.68a2.04 2.04 0 0 1 2.144 1.93l2.53 49.245a2.04 2.04 0 0 1-1.935 2.14l-2.078.175zm-13.71 1.158l-11.153.943c.768.813 1.445 1.542 1.774 1.838.833.75 1.08.471 1.804.133 3.169-1.481 5.839-2.247 7.574-2.914zm-42.145-6.447l-.05-.971a8.22 8.22 0 0 1-.48.857c-.232.354-.368.619-.44.82.293-.205.621-.445.97-.706z"/>
    <g transform="rotate(-3 643.015 -104.754)">
      <rect width="56" height="64" fill="#E7F5FF" rx="4"/>
      <path fill="#A2DAFF" d="M4 0h48a4 4 0 0 1 4 4v40H0V4a4 4 0 0 1 4-4zm2.5 48h21a2.5 2.5 0 1 1 0 5h-21a2.5 2.5 0 1 1 0-5zm0 7h7a2.5 2.5 0 1 1 0 5h-7a2.5 2.5 0 1 1 0-5zm15 0h19a2.5 2.5 0 1 1 0 5h-19a2.5 2.5 0 1 1 0-5z"/>
    </g>
    <path fill="#000" fill-opacity=".08" d="M33.937 86.107c-1.582.156-3.53-.364-4.749-.413-.332-.893-.227-2.348-.004-3.52a29.37 29.37 0 0 1 1.354.268c1.086.254 2.576-1.42 2.704-2.5.119-1.003.512-3.41.312-5.447.653-.258 1.173-.611 1.285-1.058.256-1.017 1.299-2.267.724-3.03-.575-.762-1.086-.741-1.98-.381-.712.287-4.117-.879-6.153-1.012-2.23-.145-3.922.858-4.753 2.256-1.316 2.216-.814 4.483-1.133 5.966-.32 1.483-.14 3.214.35 3.977.272.426.645.278 1.106.185a214.177 214.177 0 0 1-.299 4.47c-.085-.015-.17-.028-.25-.043-.973-.19-1.356.07-2.736.106-1.38.035-3.49.387-4.34 1.162-.761.694-3.598 3.029-5.375 4.316l.078 1.526c.058 1.104.642 4.12 1.751 4.064L41 95.897c-1.572-1.815-4.44-7.995-4.94-8.77-.637-.985-1.1-1.121-2.123-1.02z"/>
    <path fill="#2D4F89" d="M22.853 75.86l1.953-5.542s3.151-.757 4.08.065c.323 2.164-.13 4.934-.26 6.038-.129 1.103-1.64 2.812-2.74 2.552a30.73 30.73 0 0 0-1.449-.286c-.27 1.555-.32 3.53.563 4.017-1.196 1.756-7 1.218-7 1.218s.5-6.014.522-8.747c1.803-.446 3.253.026 4.331.685zm15.322 22.7c.34.88.455.574.745.379 3.404-2.286 7.499-2.656 8.898-3.54 1.399-.884 3.765-2.687 5.236-2.616 1.47.07.251.849-.323.954-.573.106-.789 1.132.718 1.132 1.506 0 4.242-.15 5.139-.29.896-.142 1.936.105 1.111.99-.824.884-1.828.495-4.016.777-2.188.283-4.188.159-5.228.725-1.04.565-5.71 4.296-7.037 5.074-1.328.778-4.593 2.69-5.243 2.714-.91.032-2.197.619-3.735-.866-1.54-1.485-5.35-7.538-6.319-10.394-.969-2.856 4.166-3.387 5.062-3.599 1.077.601 4.653 7.679 4.992 8.56zM6.483 81.406c-.068-1.5.876-5.22 1.867-6.406.521 1.934.247 4.916.247 4.916s.35.013.384-.474c.033-.489.238-1.71.58-1.57.342.14.03 2.173-.208 3.637-.24 1.466-1.112 1.88-1.607 3.237-.302.827-1.568 5.51-2.023 6.3-.455.79 3.254.014 3.838-.305.09-.049-.21.63.439 2.863-.683.627-4.663 4.828-6.683 4.36-.523-.122-2.231-.982-2.184-1.37.081-.661-.558-3.49.408-5.853 1.023-2.499 3.215-6.053 3.78-6.74.678-.825 1.06-1.759 1.162-2.595zM11 155.639s.258-1.95.548-3.25c.42-.83 2.452-.072 2.452-.072L13.322 156 11 155.639zm9-.272c.101-.57.236-2.236.202-3.619.304-1.3 1.686-.69 2.798.204-.235.65-.1 3.577-.1 3.577s-.338 1.382-.978 1.464c-.641.081-1.584-.529-1.922-1.626z"/>
    <path fill="#7A7CFB" d="M10.124 155.077c-1.554-.748-1.242 4.201-.58 4.565.661.363 3.144.313 4.722.35 1.68.039 4.377-.072 5.076-.234.698-.16 1.233-1.976-.53-2.138-1.765-.161-4.167-1.411-4.938-1.937-.772-.525-1.47 0-1.949.162-.477.161-1.212-.486-1.8-.768"/>
    <path fill="#4FA4FF" d="M20.056 155.962c.215.841.372 1.598.08 2.45-.291.853-.224 1.136 1.308 1.47 1.264.275 5.933.088 8.854-.773.992-.293.814-1.007.198-1.354-.615-.348-4.01-.164-5.176-.859-1.167-.694-1.01-2.04-1.658-1.883-.648.158-1.188 1.226-1.803.879-.243-.138-.678-.135-1.028-.387-.537-.387-.913-.078-.775.457"/>
    <path fill="#E9566C" d="M28.983 113.177c.19 3.323.95 11.659 1.012 15.456.064 3.798-.506 8.309-1.138 10.148-.563 1.636-2.73 11.974-3.424 14.347a.956.956 0 0 1-.818.696c-1.23.117-3.676.307-4.315.041-.79-.33-.22-1.155-.044-2.309.176-1.155.937-13.79.886-15.745-.048-1.809.72-3.964-.768-9.073.235 2.102-.031 6.031-.907 9.431-.797 3.1-2.157 11.428-2.948 13.119a24.68 24.68 0 0 0-1.352 3.529.523.523 0 0 1-.626.368c-1.318-.302-3.588-.283-4.09-.392-.572-.124-.528-.577-.264-1.485.264-.907 2.421-13.489 2.421-15.18 0-1.691.088-5.195-.353-7.225-.723-3.327-1.156-13.976-1.387-17.076 1.32-2.31 15.495-2.995 18.115 1.35zm-10.721-45.8c.81-1.464 2.461-2.514 4.637-2.362 1.987.14 5.309 1.36 6.003 1.06.872-.378 1.37-.4 1.932.4.56.799-.457 2.108-.706 3.173-.25 1.065-2.555 1.62-3.76 1.665-1.205.044-1.538 1.82-1.413 2.642.125.82.374 1.464-.56 1.82-.936.355-.479 1.82-1.04 2.73-.56.91-2.514.421-3.552-.31-1.039-.733-1.828.399-2.306-.4-.477-.8-.652-2.614-.34-4.167.311-1.554-.179-3.928 1.105-6.25z"/>
    <path fill="#972D2E" d="M18.005 119.766c.13 2.345.715 3.414 1.063 5.242.145.761.509 6.529-.441 13.992a57.2 57.2 0 0 1 .504-2.352c.846-3.449 1.104-7.434.876-9.566.565 2.038.792 3.607.864 4.88.662-6.014-1.398-8.275-2.152-12.018-.218-1.086-.779-1.35-.714-.178"/>
    <path fill="#65D589" d="M10.327 83.49c.863-.796 3.009-1.157 4.411-1.194 1.403-.036 1.791-.304 2.782-.109 1.683.333 4.93.264 6.113-.076 1.026-.294 2.512.076 4.502.185 1.043.057 2.568.217 3.215 1.23.647 1.012 4.466 7.487 4.962 8.422.497.934 1.187 1.407.144 2.347-1.042.94-5.185 3.372-5.836 3.372-.65 0-.612-.727-.864-1.124.036 2.856.156 3.253-.312 5.097-.467 1.844-.476 6.33-.405 7.451.073 1.122-.075 1.339.249 2.207.323.867.468 2.64.468 3.218 0 .578-2.805.217-2.805.217s-5.961-.278-8.946-.097c-2.984.18-6.84 1.364-7.74 1.364-.898 0-1.33-1.41-.79-2.242.54-.831.465-6.258.465-8.897 0-2.64-.197-7.577-.189-8.113.008-.535-.699.143-.95.251-.971-.94-3.298-4.448-3.801-5.785 1.69-1.157 4.464-6.93 5.327-7.724z"/>
    <path fill="#43B76F" d="M28.818 95.446c.14.22.649.89 1.139 1.554.084-.24.058-.642-.197-1.107-.657-1.202-1.344-2.118-1.716-3.035-.371-.916-1.515-1.374-.829.057.395.824 1.116 1.661 1.604 2.673l-.001-.142"/>
  </g>
</svg>
